<svg xmlns="http://www.w3.org/2000/svg" width="203" height="37" fill="none"><path fill="#fff" d="M4.283 15.076v2.47c.718-1.92 2.068-2.68 3.524-2.68 1.772 0 3.123 1.075 3.123 3.418v6.393h1.097v.95H6.73v-.95h1.034v-6.309c0-1.16-.591-1.646-1.456-1.646-.78 0-2.026.675-2.026 2.806v5.149H5.4v.95H0v-.95h1.118v-8.651H0v-.95h4.283Zm19.357 5.275c0 3.292-2.004 5.486-5.359 5.486s-5.36-2.194-5.36-5.486c0-3.291 2.005-5.485 5.36-5.485 3.355 0 5.36 2.194 5.36 5.485Zm-7.384 0c0 2.975.464 4.621 2.025 4.621 1.583 0 2.026-1.646 2.026-4.62 0-2.976-.443-4.621-2.026-4.621-1.561 0-2.025 1.645-2.025 4.62Zm9.526-4.325h-1.118v-.95h4.283v2.553c.422-1.582 1.625-2.764 3.08-2.764 1.225 0 1.837.76 1.837 1.752 0 .928-.591 1.667-1.583 1.667-.865 0-1.456-.549-1.456-1.393 0-.338.106-.802.528-1.118-1.35.274-2.406 2.215-2.406 4.98v3.924h1.963v.95h-6.246v-.95h1.118v-8.651Zm15.762-4.642h-1.118v-.95h4.283v14.243h1.119v.95h-4.284v-1.73c-.611 1.624-2.13 1.94-3.017 1.94-2.68 0-4.05-1.92-4.05-5.486 0-3.165 1.582-5.485 4.303-5.485.844 0 1.942.274 2.764.801v-4.283Zm0 10.297v-5.275a3.522 3.522 0 0 0-1.476-.338c-1.456 0-2.258 1.203-2.258 4.283 0 2.912.548 4.2 1.857 4.2.675 0 1.877-.528 1.877-2.87Zm5.4 4.156V22.23h.865c.654 1.456 1.73 2.806 3.144 2.806.928 0 1.582-.485 1.582-1.392 0-2.3-5.443-1.751-5.443-5.655 0-1.709 1.245-3.122 4.156-3.122.718 0 2.005.21 3.018.991l.253-.991h.506v3.608h-.823c-.738-1.963-1.519-2.807-2.68-2.807-1.012 0-1.392.612-1.392 1.16 0 2.385 5.57 2.068 5.57 5.613 0 2.279-1.75 3.397-4.325 3.397-.802 0-2.32-.21-3.63-1.118l-.273 1.118h-.528Zm13.916-9.811v7.343c0 .95.253 1.35 1.097 1.35.359 0 .781-.106 1.16-.232v.865c-.759.337-1.645.485-2.721.485-1.71 0-2.7-.59-2.7-2.384v-7.427h-1.12v-.95h1.12l2.11-2.742h1.054v2.742h2.258v.95H60.86Zm12.706 7.279v.908c-.886.78-2.195 1.624-4.326 1.624-3.418 0-5.486-2.215-5.486-5.507 0-3.671 2.638-5.464 5.38-5.464 2.406 0 4.664 1.265 4.664 4.41 0 .316-.042.864-.106 1.265h-6.604c0 2.912 1.308 3.967 3.25 3.967 1.287 0 2.426-.527 3.228-1.203Zm-6.478-3.713h3.63c.02-.148.063-.844.063-1.14 0-1.223-.401-2.721-1.604-2.721-1.54 0-2.068 1.92-2.089 3.86Zm12.115-4.516v2.47c.717-1.92 2.068-2.68 3.524-2.68 1.772 0 3.122 1.075 3.122 3.418v6.393h1.097v.95h-5.295v-.95h1.033v-6.309c0-1.16-.59-1.646-1.455-1.646-.781 0-2.026.675-2.026 2.806v5.149h1.118v.95H74.92v-.95h1.118v-8.651H74.92v-.95h4.283Zm8.787 10.761V22.23h.864c.654 1.456 1.73 2.806 3.144 2.806.929 0 1.583-.485 1.583-1.392 0-2.3-5.444-1.751-5.444-5.655 0-1.709 1.245-3.122 4.157-3.122.717 0 2.004.21 3.017.991l.253-.991h.506v3.608h-.822c-.739-1.963-1.52-2.807-2.68-2.807-1.013 0-1.393.612-1.393 1.16 0 2.385 5.57 2.068 5.57 5.613 0 2.279-1.75 3.397-4.325 3.397-.802 0-2.32-.21-3.629-1.118l-.274 1.118h-.528Zm19.232-15.402v7.11c.718-1.92 2.068-2.68 3.524-2.68 1.772 0 3.123 1.076 3.123 3.419v6.393h1.118v.95h-5.317v-.95h1.034v-6.309c0-1.16-.57-1.646-1.456-1.646-.781 0-2.026.675-2.026 2.806v5.149h1.119v.95h-5.381v-.95h1.097V11.384h-1.097v-.95h4.262Zm15.903 15.191v-2.49c-.717 1.942-2.068 2.701-3.523 2.701-1.773 0-3.102-1.076-3.102-3.418v-6.393h-1.118v-.95h4.283v7.259c0 1.16.57 1.645 1.435 1.645.78 0 2.025-.675 2.025-2.806v-5.148h-1.582v-.95h4.747v9.6h1.118v.95h-4.283Zm5.394.211V22.23h.865c.655 1.456 1.731 2.806 3.144 2.806.929 0 1.583-.485 1.583-1.392 0-2.3-5.444-1.751-5.444-5.655 0-1.709 1.245-3.122 4.157-3.122.717 0 2.004.21 3.017.991l.253-.991h.506v3.608h-.822c-.739-1.963-1.52-2.807-2.68-2.807-1.013 0-1.393.612-1.393 1.16 0 2.385 5.571 2.068 5.571 5.613 0 2.279-1.752 3.397-4.326 3.397-.802 0-2.321-.21-3.629-1.118l-.274 1.118h-.528Z"/><path stroke="#fff" stroke-width=".095" d="M177.205 21.513a1.767 1.767 0 0 0-3.533 0"/><path stroke="#fff" stroke-width=".095" d="M177.393 21.482a1.956 1.956 0 0 0-3.912 0"/><path stroke="#fff" stroke-width=".098" d="M177.583 21.449a2.145 2.145 0 0 0-4.291 0"/><path stroke="#fff" stroke-width=".109" d="M177.836 21.451a2.398 2.398 0 0 0-4.795 0"/><path stroke="#fff" stroke-width=".095" d="M185.848 21.513a1.766 1.766 0 1 0-3.533 0"/><path stroke="#fff" stroke-width=".095" d="M186.038 21.482a1.956 1.956 0 0 0-3.912 0"/><path stroke="#fff" stroke-width=".098" d="M186.227 21.449a2.145 2.145 0 1 0-4.29 0"/><path stroke="#fff" stroke-width=".109" d="M186.479 21.451a2.398 2.398 0 0 0-4.795 0"/><path stroke="#fff" stroke-width=".095" d="M191.906 21.513a1.767 1.767 0 0 0-3.534 0"/><path stroke="#fff" stroke-width=".095" d="M192.094 21.482a1.956 1.956 0 0 0-3.912 0"/><path stroke="#fff" stroke-width=".098" d="M192.283 21.449a2.145 2.145 0 1 0-4.29 0"/><path stroke="#fff" stroke-width=".109" d="M192.536 21.451a2.398 2.398 0 0 0-4.795 0"/><path stroke="#fff" stroke-width=".095" d="M197.962 21.513a1.767 1.767 0 0 0-3.533 0"/><path stroke="#fff" stroke-width=".095" d="M198.151 21.482a1.956 1.956 0 0 0-3.912 0"/><path stroke="#fff" stroke-width=".098" d="M198.341 21.449a2.145 2.145 0 0 0-4.29 0"/><path stroke="#fff" stroke-width=".109" d="M198.593 21.451a2.398 2.398 0 0 0-4.795 0"/><path stroke="#fff" stroke-width=".095" d="M168.561 21.513a1.766 1.766 0 1 0-3.533 0"/><path stroke="#fff" stroke-width=".095" d="M168.75 21.482a1.956 1.956 0 0 0-3.912 0"/><path stroke="#fff" stroke-width=".098" d="M168.939 21.449a2.145 2.145 0 1 0-4.29 0"/><path stroke="#fff" stroke-width=".109" d="M169.192 21.451a2.398 2.398 0 0 0-4.795 0"/><path stroke="#fff" stroke-width=".095" d="M162.504 21.513a1.766 1.766 0 1 0-3.533 0"/><path stroke="#fff" stroke-width=".095" d="M162.693 21.482a1.955 1.955 0 1 0-3.911 0"/><path stroke="#fff" stroke-width=".098" d="M162.883 21.449a2.145 2.145 0 1 0-4.29 0"/><path stroke="#fff" stroke-width=".109" d="M163.135 21.451a2.398 2.398 0 0 0-4.795 0"/><path stroke="#fff" stroke-width=".095" d="M156.447 21.513a1.767 1.767 0 0 0-3.533 0"/><path stroke="#fff" stroke-width=".095" d="M156.636 21.482a1.955 1.955 0 1 0-3.911 0"/><path stroke="#fff" stroke-width=".098" d="M156.826 21.449a2.145 2.145 0 1 0-4.29 0"/><path stroke="#fff" stroke-width=".109" d="M157.078 21.451a2.397 2.397 0 1 0-4.795 0"/><path stroke="#fff" stroke-width=".158" d="M172.031 21.515h1.956v1.135h-1.956m-3.848-1.135h1.072v1.135h-1.072m13.438-1.135h1.073v1.135h-1.073m3.849-1.135h1.072v1.135h-1.072m2.208-1.135h1.073v1.135h-1.073m3.849-1.135h1.072v1.135h-1.072m2.144-1.2h1.073v1.135h-1.073m3.912-1.135h1.073v1.135h-1.073m-33.249-1.07h1.072v1.135h-1.072m-2.208-1.135h1.072v1.135h-1.072m-3.849-1.135h1.072v1.135h-1.072m-2.208-1.135h1.072v1.135h-1.072m-3.848-1.135h1.072v1.135h-1.072m24.604-1.135h1.956v1.135h-1.956"/><path stroke="#fff" stroke-width=".631" d="M201.684 27.064v8.834H178.54v-6.524h-6.267v6.524h-23.145v-8.834h52.556Z"/><path stroke="#fff" stroke-width=".315" d="M169.588 36.213v-6.98h-17.784v6.98m47.202 0v-6.98h-17.784v6.98"/><path stroke="#fff" stroke-width=".158" d="M193.608 29.714v5.49m-.884-5.54v5.54m-.109.008h1.104v.418h-1.104zm0-5.901h1.104v.418h-1.104z"/><path stroke="#fff" stroke-width=".025" d="M192.885 29.729v5.444m.083-5.444v5.444m.083-5.444v5.444m.083-5.444v5.444m.084-5.444v5.444m.083-5.444v5.444m.082-5.444v5.444m.083-5.444v5.444"/><path stroke="#fff" stroke-width=".158" d="M187.552 29.714v5.49m-.883-5.54v5.54"/><path stroke="#fff" stroke-width=".025" d="M186.818 29.729v5.444m.084-5.444v5.444m.083-5.444v5.444m.084-5.444v5.444m.083-5.444v5.444m.083-5.444v5.444m.083-5.444v5.444m.083-5.444v5.444"/><path stroke="#fff" stroke-width=".158" d="M186.558 35.212h1.104v.418h-1.104zm0-5.901h1.104v.418h-1.104zm-22.35.403v5.49m-.883-5.54v5.54m-.111.008h1.104v.418h-1.104zm0-5.901h1.104v.418h-1.104z"/><path stroke="#fff" stroke-width=".025" d="M163.468 29.729v5.444m.083-5.444v5.444m.084-5.444v5.444m.083-5.444v5.444m.082-5.444v5.444m.083-5.444v5.444m.083-5.444v5.444m.084-5.444v5.444"/><path stroke="#fff" stroke-width=".158" d="M158.151 29.714v5.49m-.883-5.54v5.54m-.111.008h1.104v.418h-1.104zm0-5.901h1.104v.418h-1.104z"/><path stroke="#fff" stroke-width=".025" d="M157.402 29.729v5.444m.083-5.444v5.444m.083-5.444v5.444m.082-5.444v5.444m.084-5.444v5.444m.084-5.444v5.444m.082-5.444v5.444m.083-5.444v5.444"/><path stroke="#fff" stroke-width=".631" d="M149.128 9.715h52.556v6.057h-52.556zM202 8.517 200.738.315h-50.663l-1.262 8.202m.315 7.257h52.556v2.587h-52.556z"/><path stroke="#fff" stroke-width=".631" d="M201.684 8.202v1.515h-52.556V8.202h52.556Z"/><path stroke="#fff" stroke-width=".315" d="M196.196 20.095c.784 0 1.42.635 1.42 1.419v3.943h-2.839v-3.943c0-.784.635-1.42 1.419-1.42Z"/><path fill="#fff" d="M196.069 20.001h.315v5.615h-.315z"/><path fill="#fff" d="M197.772 21.954v.315h-3.155v-.315z"/><path stroke="#fff" stroke-width=".315" d="M190.139 20.095c.784 0 1.42.635 1.42 1.419v3.943h-2.839v-3.943c0-.784.635-1.42 1.419-1.42Z"/><path fill="#fff" d="M190.012 20.001h.315v5.615h-.315z"/><path fill="#fff" d="M191.716 21.954v.315h-3.155v-.315z"/><path stroke="#fff" stroke-width=".315" d="M184.081 20.095c.784 0 1.42.635 1.42 1.419v3.943h-2.839v-3.943c0-.784.635-1.42 1.419-1.42Z"/><path fill="#fff" d="M183.956 20.001h.315v5.615h-.315z"/><path fill="#fff" d="M185.66 21.954v.315h-3.156v-.315z"/><path stroke="#fff" stroke-width=".315" d="M166.794 20.095c.784 0 1.42.635 1.42 1.419v3.943h-2.839v-3.943c0-.784.635-1.42 1.419-1.42Z"/><path fill="#fff" d="M166.668 20.001h.315v5.615h-.315z"/><path fill="#fff" d="M168.372 21.954v.315h-3.155v-.315z"/><path stroke="#fff" stroke-width=".315" d="M160.737 20.095c.784 0 1.42.635 1.42 1.419v3.943h-2.839v-3.943c0-.784.635-1.42 1.419-1.42Z"/><path fill="#fff" d="M160.612 20.001h.315v5.615h-.315z"/><path fill="#fff" d="M162.315 21.954v.315h-3.155v-.315z"/><path stroke="#fff" stroke-width=".315" d="M154.681 20.095c.784 0 1.42.635 1.42 1.419v3.943h-2.839v-3.943c0-.784.635-1.42 1.419-1.42Z"/><path fill="#fff" d="M154.555 20.061h.315v5.552h-.315z"/><path fill="#fff" d="M156.257 21.954v.315h-3.155v-.315z"/><path stroke="#fff" stroke-width=".315" d="M175.438 20.095c.784 0 1.42.635 1.42 1.419v3.943h-2.839v-3.943c0-.784.635-1.42 1.419-1.42Z"/><path fill="#fff" d="M175.312 20.001h.315v5.615h-.315z"/><path fill="#fff" d="M177.015 21.954v.315h-3.155v-.315z"/><path stroke="#fff" stroke-width=".287" d="M155.974 10.3v4.887h-2.587v-4.886h2.587Z"/><path fill="#fff" d="M154.566 10.157h.287v5.174h-.287z"/><path fill="#fff" d="M156.118 11.477v.287h-2.874v-.287z"/><path stroke="#fff" stroke-width=".287" d="M162.031 10.3v4.887h-2.587v-4.886h2.587Z"/><path fill="#fff" d="M160.623 10.157h.287v5.174h-.287z"/><path fill="#fff" d="M162.174 11.477v.287H159.3v-.287z"/><path stroke="#fff" stroke-width=".158" d="M163.198 26.498v-6.562h1.136v6.562m-7.193 0v-6.562h1.135v6.562m10.979 0v-6.562h1.136v6.562m.567 0v-6.562h1.136v6.562m-22.713 0v-6.562h1.136v6.562m.567 0v-6.562h1.136v6.562m40.379 0v-6.562h1.136v6.562m-7.193 0v-6.562h1.136v6.562m10.977 0v-6.562h1.136v6.562m.568 0v-6.562h1.136v6.562m-22.713 0v-6.562h1.136v6.562m.567 0v-6.562h1.136v6.562"/><path stroke="#fff" stroke-width=".631" d="M149.128 18.236h52.556v8.833h-52.556z"/><path stroke="#fff" stroke-width=".158" d="M153.182 25.947h2.997v.473h-2.997zm6.057 0h2.997v.473h-2.997zm-8.344.504h1.514v.473h-1.514zm-1.703 0h1.514v.473h-1.514zm1.703-8.011h1.514v.473h-1.514zm6.057 0h1.514v.473h-1.514zm6.057 0h1.514v.473h-1.514zm0 8.011h1.514v.473h-1.514zm-6.057 0h1.514v.473h-1.514zm-7.76-8.011h1.514v.473h-1.514zm16.104 7.507h2.997v.473h-2.997zm8.644 0h2.997v.473h-2.997zm8.643 0h2.997v.473h-2.997zm6.057 0h2.997v.473h-2.997zm6.057 0h2.997v.473h-2.997zm-23.928.504h1.514v.473h-1.514zm-1.703 0h1.514v.473h-1.514zm11.262 0h1.514v.473h-1.514zm-1.735 0h1.514v.473h-1.514zm1.703-8.011h1.514v.473h-1.514zm-1.703 0h1.514v.473h-1.514zm21.577 0h1.514v.473h-1.514zm-1.704 0h1.514v.473h-1.514zm1.704 8.011h1.514v.473h-1.514zm-1.704 0h1.514v.473h-1.514zm-6.056 0h1.514v.473h-1.514zm-6.057 0h1.514v.473h-1.514zm6.057-8.011h1.514v.473h-1.514zm-6.057 0h1.514v.473h-1.514zm-15.584 0h1.514v.473h-1.514zm-1.703 0h1.514v.473h-1.514zm-19.874.518.189.915m1.325-.915-.189.915m.378-.915.189.915m1.325-.915-.19.915m4.733-.915.189.915m1.325-.915-.189.915m4.732-.915.189.915m1.325-.915-.189.915m4.732-.915.19.915m1.325-.915-.19.915m.378-.915.189.915m1.325-.915-.189.915m6.498-.915.19.915m1.325-.915-.19.915m.379-.915.19.915m1.324-.915-.189.915m4.732-.915.19.915m1.325-.915-.19.915m4.732-.915.189.915m1.325-.915-.189.915m4.732-.915.189.915m1.325-.915-.189.915m.378-.915.189.915m1.325-.915-.19.915m-48.706-9.543v4.812m-.883-4.858v4.858m-.111.016h1.104v.347h-1.104zm0-5.175h1.104v.347h-1.104zm5.662.347v4.812m-.883-4.858v4.858m-.11.016h1.104v.347h-1.104zm0-5.175h1.104v.347h-1.104zm2.382.347v4.812m-.883-4.858v4.858m-.111.016h1.104v.347h-1.104zm0-5.175h1.104v.347h-1.104zm5.662.347v4.812m-.883-4.858v4.858m-.11.016h1.104v.347h-1.104zm0-5.175h1.104v.347h-1.104zm2.381.347v4.812m-.883-4.858v4.858m-.11.016h1.104v.347h-1.104zm0-5.175h1.104v.347h-1.104zm5.662.347v4.812m-.883-4.858v4.858m-.11.016h1.104v.347h-1.104zm0-5.175h1.104v.347h-1.104zm4.969.347v4.812m-.884-4.858v4.858m-.11.016h1.104v.347h-1.104zm0-5.175h1.104v.347h-1.104zm5.662.347v4.812m-.883-4.858v4.858m-.111.016h1.104v.347h-1.104zm0-5.175h1.104v.347h-1.104zm4.969.347v4.812m-.883-4.858v4.858m-.11.016h1.104v.347h-1.104zm0-5.175h1.104v.347h-1.104zm5.661.347v4.812m-.883-4.858v4.858m-.11.016h1.104v.347h-1.104zm0-5.175h1.104v.347h-1.104zm2.381.347v4.812m-.883-4.858v4.858m-.109.016h1.104v.347h-1.104zm0-5.175h1.104v.347h-1.104zm5.661.347v4.812m-.883-4.858v4.858m-.11.016h1.104v.347h-1.104zm0-5.175h1.104v.347h-1.104zm2.381.347v4.812m-.883-4.858v4.858m-.11.016h1.104v.347h-1.104zm0-5.175h1.104v.347h-1.104zm5.662.347v4.812m-.883-4.858v4.858m-.11.016h1.104v.347h-1.104zm0-5.175h1.104v.347h-1.104zm-27.635.508h1.546v4.511h-1.546zm-20.505 0h1.546v4.511h-1.546zm29.149 0h1.546v4.511h-1.546zm20.442 0h1.546v4.511h-1.546z"/><path stroke="#fff" stroke-dasharray="0.13 0.13" stroke-width=".379" d="M149.444 16.91h51.925"/><path stroke="#fff" stroke-width=".287" d="M168.087 10.3v4.887H165.5v-4.886h2.587Z"/><path fill="#fff" d="M166.679 10.157h.287v5.174h-.287z"/><path fill="#fff" d="M168.232 11.477v.287h-2.874v-.287z"/><path stroke="#fff" stroke-width=".287" d="M176.732 10.3v4.887h-2.587v-4.886h2.587Z"/><path fill="#fff" d="M175.323 10.157h.287v5.174h-.287z"/><path fill="#fff" d="M176.875 11.477v.287h-2.874v-.287z"/><path stroke="#fff" stroke-width=".287" d="M185.375 10.3v4.887h-2.587v-4.886h2.587Z"/><path fill="#fff" d="M183.967 10.157h.287v5.174h-.287z"/><path fill="#fff" d="M185.52 11.477v.287h-2.875v-.287z"/><path stroke="#fff" stroke-width=".287" d="M191.431 10.3v4.887h-2.587v-4.886h2.587Z"/><path fill="#fff" d="M190.023 10.157h.287v5.174h-.287z"/><path fill="#fff" d="M191.576 11.477v.287h-2.874v-.287z"/><path stroke="#fff" stroke-width=".287" d="M197.488 10.3v4.887h-2.587v-4.886h2.587Z"/><path fill="#fff" d="M196.08 10.157h.287v5.174h-.287z"/><path fill="#fff" d="M197.632 11.477v.287h-2.874v-.287z"/><path stroke="#fff" stroke-width=".063" d="M175.375 29.682h.063v6.367h-.063z"/><path stroke="#fff" stroke-width=".098" d="M176.224 34.707h.849v.917h-.849zm0-2.944h.849v2.339h-.849zm0-1.523h.849v.918h-.849zm-2.516 4.467h.849v.917h-.849zm0-2.944h.849v2.339h-.849zm0-1.523h.849v.918h-.849z"/><circle cx="173.893" cy="35.979" r=".067" stroke="#fff" stroke-width=".063"/><circle cx="173.325" cy="35.979" r=".067" stroke="#fff" stroke-width=".063"/><circle cx="172.757" cy="35.979" r=".067" stroke="#fff" stroke-width=".063"/><circle cx="173.325" cy="35.436" r=".067" stroke="#fff" stroke-width=".063"/><circle cx="172.757" cy="35.436" r=".067" stroke="#fff" stroke-width=".063"/><circle cx="173.325" cy="34.896" r=".067" stroke="#fff" stroke-width=".063"/><circle cx="172.757" cy="34.896" r=".067" stroke="#fff" stroke-width=".063"/><circle cx="173.325" cy="34.356" r=".067" stroke="#fff" stroke-width=".063"/><circle cx="172.757" cy="34.356" r=".067" stroke="#fff" stroke-width=".063"/><circle cx="173.325" cy="33.813" r=".067" stroke="#fff" stroke-width=".063"/><circle cx="172.757" cy="33.813" r=".067" stroke="#fff" stroke-width=".063"/><circle cx="173.325" cy="33.272" r=".067" stroke="#fff" stroke-width=".063"/><circle cx="172.757" cy="33.272" r=".067" stroke="#fff" stroke-width=".063"/><circle cx="173.325" cy="32.73" r=".067" stroke="#fff" stroke-width=".063"/><circle cx="172.757" cy="32.73" r=".067" stroke="#fff" stroke-width=".063"/><circle cx="173.325" cy="32.187" r=".067" stroke="#fff" stroke-width=".063"/><circle cx="172.757" cy="32.187" r=".067" stroke="#fff" stroke-width=".063"/><circle cx="173.325" cy="31.645" r=".067" stroke="#fff" stroke-width=".063"/><circle cx="172.757" cy="31.645" r=".067" stroke="#fff" stroke-width=".063"/><circle cx="173.325" cy="31.104" r=".067" stroke="#fff" stroke-width=".063"/><circle cx="172.757" cy="31.104" r=".067" stroke="#fff" stroke-width=".063"/><circle cx="173.325" cy="30.561" r=".067" stroke="#fff" stroke-width=".063"/><circle cx="172.757" cy="30.561" r=".067" stroke="#fff" stroke-width=".063"/><circle cx="178.057" cy="35.436" r=".067" stroke="#fff" stroke-width=".063"/><circle cx="177.489" cy="35.436" r=".067" stroke="#fff" stroke-width=".063"/><circle cx="178.057" cy="34.896" r=".067" stroke="#fff" stroke-width=".063"/><circle cx="177.489" cy="34.896" r=".067" stroke="#fff" stroke-width=".063"/><circle cx="178.057" cy="34.356" r=".067" stroke="#fff" stroke-width=".063"/><circle cx="177.489" cy="34.356" r=".067" stroke="#fff" stroke-width=".063"/><circle cx="178.057" cy="33.813" r=".067" stroke="#fff" stroke-width=".063"/><circle cx="177.489" cy="33.813" r=".067" stroke="#fff" stroke-width=".063"/><circle cx="178.057" cy="33.272" r=".067" stroke="#fff" stroke-width=".063"/><circle cx="177.489" cy="33.272" r=".067" stroke="#fff" stroke-width=".063"/><circle cx="178.057" cy="32.73" r=".067" stroke="#fff" stroke-width=".063"/><circle cx="177.489" cy="32.73" r=".067" stroke="#fff" stroke-width=".063"/><circle cx="178.057" cy="32.187" r=".067" stroke="#fff" stroke-width=".063"/><circle cx="177.489" cy="32.187" r=".067" stroke="#fff" stroke-width=".063"/><circle cx="178.057" cy="31.645" r=".067" stroke="#fff" stroke-width=".063"/><circle cx="177.489" cy="31.645" r=".067" stroke="#fff" stroke-width=".063"/><circle cx="178.057" cy="31.104" r=".067" stroke="#fff" stroke-width=".063"/><circle cx="177.489" cy="31.104" r=".067" stroke="#fff" stroke-width=".063"/><circle cx="178.057" cy="30.561" r=".067" stroke="#fff" stroke-width=".063"/><circle cx="177.489" cy="30.561" r=".067" stroke="#fff" stroke-width=".063"/><circle cx="173.325" cy="29.954" r=".067" stroke="#fff" stroke-width=".063"/><circle cx="175.029" cy="35.436" r=".067" stroke="#fff" stroke-width=".063"/><circle cx="175.029" cy="34.896" r=".067" stroke="#fff" stroke-width=".063"/><circle cx="175.029" cy="34.356" r=".067" stroke="#fff" stroke-width=".063"/><circle cx="175.029" cy="33.813" r=".067" stroke="#fff" stroke-width=".063"/><circle cx="175.029" cy="33.272" r=".067" stroke="#fff" stroke-width=".063"/><circle cx="175.029" cy="32.73" r=".067" stroke="#fff" stroke-width=".063"/><circle cx="175.029" cy="32.187" r=".067" stroke="#fff" stroke-width=".063"/><circle cx="175.029" cy="31.645" r=".067" stroke="#fff" stroke-width=".063"/><circle cx="175.029" cy="31.104" r=".067" stroke="#fff" stroke-width=".063"/><circle cx="175.029" cy="30.561" r=".067" stroke="#fff" stroke-width=".063"/><circle cx="175.029" cy="29.954" r=".067" stroke="#fff" stroke-width=".063"/><circle cx="175.785" cy="35.436" r=".067" stroke="#fff" stroke-width=".063"/><circle cx="175.785" cy="34.896" r=".067" stroke="#fff" stroke-width=".063"/><circle cx="175.785" cy="34.356" r=".067" stroke="#fff" stroke-width=".063"/><circle cx="175.785" cy="33.813" r=".067" stroke="#fff" stroke-width=".063"/><circle cx="175.785" cy="33.272" r=".067" stroke="#fff" stroke-width=".063"/><circle cx="175.785" cy="32.73" r=".067" stroke="#fff" stroke-width=".063"/><circle cx="175.785" cy="32.187" r=".067" stroke="#fff" stroke-width=".063"/><circle cx="175.785" cy="31.645" r=".067" stroke="#fff" stroke-width=".063"/><circle cx="175.785" cy="31.104" r=".067" stroke="#fff" stroke-width=".063"/><circle cx="175.785" cy="30.561" r=".067" stroke="#fff" stroke-width=".063"/><circle cx="175.785" cy="29.954" r=".067" stroke="#fff" stroke-width=".063"/><circle cx="172.757" cy="29.954" r=".067" stroke="#fff" stroke-width=".063"/><circle cx="174.46" cy="35.979" r=".067" stroke="#fff" stroke-width=".063"/><circle cx="173.893" cy="29.954" r=".067" stroke="#fff" stroke-width=".063"/><circle cx="174.46" cy="29.954" r=".067" stroke="#fff" stroke-width=".063"/><circle cx="176.921" cy="29.954" r=".067" stroke="#fff" stroke-width=".063"/><circle cx="176.353" cy="29.954" r=".067" stroke="#fff" stroke-width=".063"/><circle cx="177.489" cy="29.954" r=".067" stroke="#fff" stroke-width=".063"/><circle cx="178.057" cy="29.954" r=".067" stroke="#fff" stroke-width=".063"/><circle cx="175.029" cy="35.979" r=".067" stroke="#fff" stroke-width=".063"/><circle cx="176.921" cy="35.979" r=".067" stroke="#fff" stroke-width=".063"/><circle cx="176.353" cy="35.979" r=".067" stroke="#fff" stroke-width=".063"/><circle cx="175.785" cy="35.979" r=".067" stroke="#fff" stroke-width=".063"/><circle cx="177.489" cy="35.979" r=".067" stroke="#fff" stroke-width=".063"/><circle cx="178.057" cy="35.979" r=".067" stroke="#fff" stroke-width=".063"/><path fill="#fff" d="M172.41 36.145h6.183v.068h-6.183z"/></svg>