<svg xmlns="http://www.w3.org/2000/svg" xmlns:xlink="http://www.w3.org/1999/xlink" id="Lag_1" x="0px" y="0px" viewBox="0 0 195 151.1" style="enable-background:new 0 0 195 151.1;" xml:space="preserve">
<style type="text/css">
	.st0{fill:#FFFFFF;}
</style>
<rect x="102.9" y="35" class="st0" width="8" height="81.2"></rect>
<path class="st0" d="M81.6,48.4L67.5,75.2h-9.4L47.1,47v34.9h6v9.2H32v-9.2h6.8V44.7H32v-9.2L51.3,36l12.6,30.3L80.2,36h8.1"></path>
<path class="st0" d="M195,151.1H0V0h195V151.1z M7,144.1h181V7H7V144.1z"></path>
<path class="st0" d="M152.6,105.1l-5.3-12.8c2.7-0.8,5.1-2.6,6.5-5.1c1.6-3,2.3-6.4,2.2-9.7v-3.9c0-5.1-1.2-9-3.6-11.7  c-2.4-2.6-5.9-4-10.6-4h-12.2v9.3H140c2.5,0,4.2,0.5,5.2,1.5s1.5,2.7,1.5,5.2v3.4c0,2.4-0.5,4-1.5,5s-2.7,1.4-5.2,1.4h-10.3V93h7.8  l9.1,21.3h13.1V105L152.6,105.1L152.6,105.1z"></path>
</svg>