<svg width="432" height="291" viewBox="0 0 432 291" fill="none" xmlns="http://www.w3.org/2000/svg">
<path d="M230.267 172.596C230.267 164.769 223.922 158.424 216.095 158.424C208.268 158.424 201.923 164.769 201.923 172.596" stroke="white" stroke-width="0.759214"/>
<path d="M231.785 172.343C231.785 163.677 224.76 156.652 216.095 156.652C207.429 156.652 200.404 163.677 200.404 172.343" stroke="white" stroke-width="0.759214"/>
<path d="M233.304 172.089C233.304 162.585 225.599 154.88 216.095 154.88C206.59 154.88 198.886 162.585 198.886 172.089" stroke="white" stroke-width="0.782221"/>
<path d="M235.328 172.089C235.328 161.467 226.717 152.855 216.094 152.855C205.472 152.855 196.861 161.467 196.861 172.089" stroke="white" stroke-width="0.874247"/>
<path d="M299.609 172.596C299.609 164.769 293.264 158.424 285.437 158.424C277.61 158.424 271.265 164.769 271.265 172.596" stroke="white" stroke-width="0.759214"/>
<path d="M301.127 172.343C301.127 163.677 294.102 156.652 285.436 156.652C276.77 156.652 269.746 163.677 269.746 172.343" stroke="white" stroke-width="0.759214"/>
<path d="M302.645 172.089C302.645 162.585 294.94 154.88 285.436 154.88C275.932 154.88 268.227 162.585 268.227 172.089" stroke="white" stroke-width="0.782221"/>
<path d="M304.673 172.089C304.673 161.467 296.061 152.855 285.439 152.855C274.817 152.855 266.206 161.467 266.206 172.089" stroke="white" stroke-width="0.874247"/>
<path d="M348.201 172.596C348.201 164.769 341.856 158.424 334.029 158.424C326.202 158.424 319.857 164.769 319.857 172.596" stroke="white" stroke-width="0.759214"/>
<path d="M349.719 172.343C349.719 163.677 342.695 156.652 334.029 156.652C325.363 156.652 318.338 163.677 318.338 172.343" stroke="white" stroke-width="0.759214"/>
<path d="M351.237 172.089C351.237 162.585 343.533 154.88 334.029 154.88C324.524 154.88 316.82 162.585 316.82 172.089" stroke="white" stroke-width="0.782221"/>
<path d="M353.262 172.089C353.262 161.467 344.65 152.855 334.028 152.855C323.406 152.855 314.794 161.467 314.794 172.089" stroke="white" stroke-width="0.874247"/>
<path d="M396.79 172.596C396.79 164.769 390.445 158.424 382.618 158.424C374.791 158.424 368.446 164.769 368.446 172.596" stroke="white" stroke-width="0.759214"/>
<path d="M398.308 172.343C398.308 163.677 391.283 156.652 382.618 156.652C373.952 156.652 366.927 163.677 366.927 172.343" stroke="white" stroke-width="0.759214"/>
<path d="M399.826 172.089C399.826 162.585 392.122 154.88 382.617 154.88C373.113 154.88 365.408 162.585 365.408 172.089" stroke="white" stroke-width="0.782221"/>
<path d="M401.851 172.089C401.851 161.467 393.239 152.855 382.617 152.855C371.995 152.855 363.384 161.467 363.384 172.089" stroke="white" stroke-width="0.874247"/>
<path d="M160.926 172.596C160.926 164.769 154.581 158.424 146.754 158.424C138.927 158.424 132.582 164.769 132.582 172.596" stroke="white" stroke-width="0.759214"/>
<path d="M162.444 172.343C162.444 163.677 155.419 156.652 146.754 156.652C138.088 156.652 131.063 163.677 131.063 172.343" stroke="white" stroke-width="0.759214"/>
<path d="M163.962 172.089C163.962 162.585 156.258 154.88 146.753 154.88C137.249 154.88 129.544 162.585 129.544 172.089" stroke="white" stroke-width="0.782221"/>
<path d="M165.986 172.089C165.986 161.467 157.375 152.855 146.753 152.855C136.13 152.855 127.519 161.467 127.519 172.089" stroke="white" stroke-width="0.874247"/>
<path d="M112.337 172.596C112.337 164.769 105.992 158.424 98.1648 158.424C90.3377 158.424 83.9927 164.769 83.9927 172.596" stroke="white" stroke-width="0.759214"/>
<path d="M113.855 172.343C113.855 163.677 106.83 156.652 98.1646 156.652C89.499 156.652 82.4741 163.677 82.4741 172.343" stroke="white" stroke-width="0.759214"/>
<path d="M115.373 172.089C115.373 162.585 107.668 154.88 98.164 154.88C88.6598 154.88 80.9551 162.585 80.9551 172.089" stroke="white" stroke-width="0.782221"/>
<path d="M117.397 172.089C117.397 161.467 108.786 152.855 98.1637 152.855C87.5413 152.855 78.9302 161.467 78.9302 172.089" stroke="white" stroke-width="0.874247"/>
<path d="M63.7445 172.596C63.7445 164.769 57.3995 158.424 49.5725 158.424C41.7454 158.424 35.4004 164.769 35.4004 172.596" stroke="white" stroke-width="0.759214"/>
<path d="M65.2624 172.343C65.2624 163.677 58.2375 156.652 49.5719 156.652C40.9062 156.652 33.8813 163.677 33.8813 172.343" stroke="white" stroke-width="0.759214"/>
<path d="M66.7841 172.089C66.7841 162.585 59.0794 154.88 49.5752 154.88C40.0709 154.88 32.3662 162.585 32.3662 172.089" stroke="white" stroke-width="0.782221"/>
<path d="M68.8084 172.089C68.8084 161.467 60.1972 152.855 49.5748 152.855C38.9525 152.855 30.3413 161.467 30.3413 172.089" stroke="white" stroke-width="0.874247"/>
<path d="M188.764 172.594H204.455V181.704H188.764" stroke="white" stroke-width="1.26536"/>
<path d="M157.889 172.594H166.493V181.704H157.889" stroke="white" stroke-width="1.26536"/>
<path d="M265.698 172.594H274.302V181.704H265.698" stroke="white" stroke-width="1.26536"/>
<path d="M296.571 172.594H305.176V181.704H296.571" stroke="white" stroke-width="1.26536"/>
<path d="M314.286 172.594H322.891V181.704H314.286" stroke="white" stroke-width="1.26536"/>
<path d="M345.164 172.594H353.768V181.704H345.164" stroke="white" stroke-width="1.26536"/>
<path d="M362.373 172.087H370.977V181.197H362.373" stroke="white" stroke-width="1.26536"/>
<path d="M393.753 172.087H402.357V181.197H393.753" stroke="white" stroke-width="1.26536"/>
<path d="M127.015 172.594H135.619V181.704H127.015" stroke="white" stroke-width="1.26536"/>
<path d="M109.3 172.594H117.904V181.704H109.3" stroke="white" stroke-width="1.26536"/>
<path d="M78.4224 172.594H87.0269V181.704H78.4224" stroke="white" stroke-width="1.26536"/>
<path d="M60.707 172.594H69.3115V181.704H60.707" stroke="white" stroke-width="1.26536"/>
<path d="M29.8335 172.594H38.438V181.704H29.8335" stroke="white" stroke-width="1.26536"/>
<path d="M227.231 172.594H242.922V181.704H227.231" stroke="white" stroke-width="1.26536"/>
<path d="M426.652 217.133V287.993H240.982V235.661H190.702V287.993H5.03174V217.133H426.652Z" stroke="white" stroke-width="5.06143"/>
<path d="M169.168 290.527V234.528H26.5024V290.527" stroke="white" stroke-width="2.53071"/>
<path d="M405.165 290.527V234.528H262.5L262.5 290.527" stroke="white" stroke-width="2.53071"/>
<path d="M361.868 238.399V282.433M354.782 237.987V282.433" stroke="white" stroke-width="1.26536"/>
<rect x="353.895" y="282.487" width="8.85756" height="3.35239" stroke="white" stroke-width="1.26536"/>
<rect x="353.895" y="235.161" width="8.85756" height="3.35239" stroke="white" stroke-width="1.26536"/>
<line x1="356.066" y1="238.487" x2="356.066" y2="282.162" stroke="white" stroke-width="0.199997"/>
<line x1="356.73" y1="238.487" x2="356.73" y2="282.162" stroke="white" stroke-width="0.199997"/>
<line x1="357.398" y1="238.487" x2="357.398" y2="282.162" stroke="white" stroke-width="0.199997"/>
<line x1="358.066" y1="238.487" x2="358.066" y2="282.162" stroke="white" stroke-width="0.199997"/>
<line x1="358.73" y1="238.487" x2="358.73" y2="282.162" stroke="white" stroke-width="0.199997"/>
<line x1="359.398" y1="238.487" x2="359.398" y2="282.162" stroke="white" stroke-width="0.199997"/>
<line x1="360.066" y1="238.487" x2="360.066" y2="282.162" stroke="white" stroke-width="0.199997"/>
<line x1="360.731" y1="238.487" x2="360.731" y2="282.162" stroke="white" stroke-width="0.199997"/>
<path d="M313.272 238.399V282.433M306.186 237.987V282.433" stroke="white" stroke-width="1.26536"/>
<line x1="307.395" y1="238.487" x2="307.395" y2="282.162" stroke="white" stroke-width="0.199997"/>
<line x1="308.06" y1="238.487" x2="308.06" y2="282.162" stroke="white" stroke-width="0.199997"/>
<line x1="308.728" y1="238.487" x2="308.728" y2="282.162" stroke="white" stroke-width="0.199997"/>
<line x1="309.396" y1="238.487" x2="309.396" y2="282.162" stroke="white" stroke-width="0.199997"/>
<line x1="310.06" y1="238.487" x2="310.06" y2="282.162" stroke="white" stroke-width="0.199997"/>
<line x1="310.728" y1="238.487" x2="310.728" y2="282.162" stroke="white" stroke-width="0.199997"/>
<line x1="311.396" y1="238.487" x2="311.396" y2="282.162" stroke="white" stroke-width="0.199997"/>
<line x1="312.06" y1="238.487" x2="312.06" y2="282.162" stroke="white" stroke-width="0.199997"/>
<rect x="305.302" y="282.487" width="8.85756" height="3.35239" stroke="white" stroke-width="1.26536"/>
<rect x="305.302" y="235.161" width="8.85756" height="3.35239" stroke="white" stroke-width="1.26536"/>
<path d="M126 238.399V282.433M118.914 237.987V282.433" stroke="white" stroke-width="1.26536"/>
<rect x="118.031" y="282.487" width="8.85756" height="3.35239" stroke="white" stroke-width="1.26536"/>
<rect x="118.031" y="235.161" width="8.85756" height="3.35239" stroke="white" stroke-width="1.26536"/>
<line x1="120.068" y1="238.487" x2="120.068" y2="282.162" stroke="white" stroke-width="0.199997"/>
<line x1="120.736" y1="238.487" x2="120.736" y2="282.162" stroke="white" stroke-width="0.199997"/>
<line x1="121.4" y1="238.487" x2="121.4" y2="282.162" stroke="white" stroke-width="0.199997"/>
<line x1="122.068" y1="238.487" x2="122.068" y2="282.162" stroke="white" stroke-width="0.199997"/>
<line x1="122.733" y1="238.487" x2="122.733" y2="282.162" stroke="white" stroke-width="0.199997"/>
<line x1="123.401" y1="238.487" x2="123.401" y2="282.162" stroke="white" stroke-width="0.199997"/>
<line x1="124.068" y1="238.487" x2="124.068" y2="282.162" stroke="white" stroke-width="0.199997"/>
<line x1="124.733" y1="238.487" x2="124.733" y2="282.162" stroke="white" stroke-width="0.199997"/>
<path d="M77.4116 238.399V282.433M70.3256 237.987V282.433" stroke="white" stroke-width="1.26536"/>
<rect x="69.4383" y="282.487" width="8.85756" height="3.35239" stroke="white" stroke-width="1.26536"/>
<rect x="69.4383" y="235.161" width="8.85756" height="3.35239" stroke="white" stroke-width="1.26536"/>
<line x1="71.3978" y1="238.487" x2="71.3979" y2="282.162" stroke="white" stroke-width="0.199997"/>
<line x1="72.0658" y1="238.487" x2="72.0658" y2="282.162" stroke="white" stroke-width="0.199997"/>
<line x1="72.7304" y1="238.487" x2="72.7304" y2="282.162" stroke="white" stroke-width="0.199997"/>
<line x1="73.3983" y1="238.487" x2="73.3983" y2="282.162" stroke="white" stroke-width="0.199997"/>
<line x1="74.0629" y1="238.487" x2="74.0629" y2="282.162" stroke="white" stroke-width="0.199997"/>
<line x1="74.7309" y1="238.487" x2="74.7309" y2="282.162" stroke="white" stroke-width="0.199997"/>
<line x1="75.3988" y1="238.487" x2="75.3988" y2="282.162" stroke="white" stroke-width="0.199997"/>
<line x1="76.0634" y1="238.487" x2="76.0634" y2="282.162" stroke="white" stroke-width="0.199997"/>
<rect x="5.03218" y="77.9458" width="421.619" height="48.5894" stroke="white" stroke-width="5.06143"/>
<path d="M429.182 68.3285L419.059 2.53027H12.6244L2.50146 68.3285" stroke="white" stroke-width="5.06143"/>
<rect x="5.03218" y="126.538" width="421.619" height="20.7517" stroke="white" stroke-width="5.06143"/>
<path d="M426.652 65.7949V77.9424H5.03174V65.7949H426.652Z" stroke="white" stroke-width="5.06143"/>
<path d="M382.618 161.208C388.908 161.208 394.007 166.306 394.007 172.596V204.229H371.23V172.596C371.231 166.306 376.329 161.208 382.618 161.208Z" stroke="white" stroke-width="2.53071"/>
<rect x="381.605" y="160.448" width="2.53073" height="45.0465" fill="white"/>
<rect x="395.27" y="176.135" width="2.5307" height="25.3073" transform="rotate(90 395.27 176.135)" fill="white"/>
<path d="M334.026 161.208C340.315 161.208 345.414 166.306 345.414 172.596V204.229H322.638V172.596C322.638 166.306 327.736 161.208 334.026 161.208Z" stroke="white" stroke-width="2.53071"/>
<rect x="333.012" y="160.448" width="2.53073" height="45.0465" fill="white"/>
<rect x="346.681" y="176.135" width="2.5307" height="25.3073" transform="rotate(90 346.681 176.135)" fill="white"/>
<path d="M285.437 161.208C291.726 161.208 296.825 166.306 296.825 172.596V204.229H274.049V172.596C274.049 166.306 279.147 161.208 285.437 161.208Z" stroke="white" stroke-width="2.53071"/>
<rect x="284.427" y="160.448" width="2.53073" height="45.0465" fill="white"/>
<rect x="298.092" y="176.135" width="2.5307" height="25.3073" transform="rotate(90 298.092 176.135)" fill="white"/>
<path d="M146.753 161.208C153.043 161.208 158.142 166.306 158.142 172.596V204.229H135.366V172.596C135.366 166.306 140.464 161.208 146.753 161.208Z" stroke="white" stroke-width="2.53071"/>
<rect x="145.74" y="160.448" width="2.53073" height="45.0465" fill="white"/>
<rect x="159.406" y="176.135" width="2.5307" height="25.3073" transform="rotate(90 159.406 176.135)" fill="white"/>
<path d="M98.165 161.208C104.455 161.208 109.554 166.306 109.554 172.596V204.229H86.7773V172.596C86.7775 166.306 91.8757 161.208 98.165 161.208Z" stroke="white" stroke-width="2.53071"/>
<rect x="97.1514" y="160.448" width="2.53073" height="45.0465" fill="white"/>
<rect x="110.82" y="176.135" width="2.5307" height="25.3073" transform="rotate(90 110.82 176.135)" fill="white"/>
<path d="M49.5728 161.208C55.8622 161.208 60.9612 166.306 60.9614 172.596V204.229H38.1851V172.596C38.1852 166.306 43.2834 161.208 49.5728 161.208Z" stroke="white" stroke-width="2.53071"/>
<rect x="48.5591" y="160.955" width="2.53073" height="44.5403" fill="white"/>
<rect x="62.2246" y="176.135" width="2.5307" height="25.3073" transform="rotate(90 62.2246 176.135)" fill="white"/>
<path d="M216.095 161.208C222.385 161.208 227.484 166.306 227.484 172.596V204.229H204.708V172.596C204.708 166.306 209.806 161.208 216.095 161.208Z" stroke="white" stroke-width="2.53071"/>
<rect x="215.082" y="160.448" width="2.53073" height="45.0465" fill="white"/>
<rect x="228.75" y="176.135" width="2.5307" height="25.3073" transform="rotate(90 228.75 176.135)" fill="white"/>
<path d="M59.9492 82.6426V121.84H39.1973V82.6426H59.9492Z" stroke="white" stroke-width="2.30576"/>
<rect x="48.6504" y="81.4893" width="2.30577" height="41.5035" fill="white"/>
<rect x="61.1025" y="92.0928" width="2.30575" height="23.0577" transform="rotate(90 61.1025 92.0928)" fill="white"/>
<path d="M108.538 82.6426V121.84H87.7861V82.6426H108.538Z" stroke="white" stroke-width="2.30576"/>
<rect x="97.2393" y="81.4893" width="2.30577" height="41.5035" fill="white"/>
<rect x="109.692" y="92.0928" width="2.30575" height="23.0577" transform="rotate(90 109.692 92.0928)" fill="white"/>
<path d="M117.903 212.581V159.942H127.013V212.581" stroke="white" stroke-width="1.26536"/>
<path d="M69.3137 212.581V159.942H78.4243V212.581" stroke="white" stroke-width="1.26536"/>
<path d="M166.495 212.581V159.942H175.605V212.581" stroke="white" stroke-width="1.26536"/>
<path d="M180.16 212.581V159.942H189.271V212.581" stroke="white" stroke-width="1.26536"/>
<path d="M7.05588 212.581V159.942H16.1665V212.581" stroke="white" stroke-width="1.26536"/>
<path d="M20.7243 212.581V159.942H29.835V212.581" stroke="white" stroke-width="1.26536"/>
<path d="M353.767 212.581V159.942H362.877V212.581" stroke="white" stroke-width="1.26536"/>
<path d="M305.177 212.581V159.942H314.288V212.581" stroke="white" stroke-width="1.26536"/>
<path d="M402.355 212.581V159.942H411.466V212.581" stroke="white" stroke-width="1.26536"/>
<path d="M416.024 212.581V159.942H425.135V212.581" stroke="white" stroke-width="1.26536"/>
<path d="M242.92 212.581V159.942H252.031V212.581" stroke="white" stroke-width="1.26536"/>
<path d="M256.589 212.581V159.942H265.699V212.581" stroke="white" stroke-width="1.26536"/>
<rect x="5.03218" y="146.274" width="421.619" height="70.8596" stroke="white" stroke-width="5.06143"/>
<rect x="37.5516" y="208.147" width="24.0419" height="3.79604" stroke="white" stroke-width="1.26536"/>
<rect x="86.1444" y="208.147" width="24.0419" height="3.79604" stroke="white" stroke-width="1.26536"/>
<rect x="19.204" y="212.197" width="12.1475" height="3.79604" stroke="white" stroke-width="1.26536"/>
<rect x="5.53893" y="212.197" width="12.1475" height="3.79604" stroke="white" stroke-width="1.26536"/>
<rect x="19.204" y="147.919" width="12.1475" height="3.79604" stroke="white" stroke-width="1.26536"/>
<rect x="67.7963" y="147.919" width="12.1475" height="3.79604" stroke="white" stroke-width="1.26536"/>
<rect x="116.385" y="147.919" width="12.1475" height="3.79604" stroke="white" stroke-width="1.26536"/>
<rect x="116.385" y="212.197" width="12.1475" height="3.79604" stroke="white" stroke-width="1.26536"/>
<rect x="67.7963" y="212.197" width="12.1475" height="3.79604" stroke="white" stroke-width="1.26536"/>
<rect x="5.53893" y="147.919" width="12.1475" height="3.79604" stroke="white" stroke-width="1.26536"/>
<rect x="134.733" y="208.147" width="24.0419" height="3.79604" stroke="white" stroke-width="1.26536"/>
<rect x="204.075" y="208.147" width="24.0419" height="3.79604" stroke="white" stroke-width="1.26536"/>
<rect x="273.416" y="208.147" width="24.0419" height="3.79604" stroke="white" stroke-width="1.26536"/>
<rect x="322.005" y="208.147" width="24.0419" height="3.79604" stroke="white" stroke-width="1.26536"/>
<rect x="370.597" y="208.147" width="24.0419" height="3.79604" stroke="white" stroke-width="1.26536"/>
<rect x="178.639" y="212.197" width="12.1475" height="3.79604" stroke="white" stroke-width="1.26536"/>
<rect x="164.974" y="212.197" width="12.1475" height="3.79604" stroke="white" stroke-width="1.26536"/>
<rect x="255.321" y="212.197" width="12.1475" height="3.79604" stroke="white" stroke-width="1.26536"/>
<rect x="241.403" y="212.197" width="12.1475" height="3.79604" stroke="white" stroke-width="1.26536"/>
<rect x="255.068" y="147.919" width="12.1475" height="3.79604" stroke="white" stroke-width="1.26536"/>
<rect x="241.403" y="147.919" width="12.1475" height="3.79604" stroke="white" stroke-width="1.26536"/>
<rect x="414.504" y="147.919" width="12.1475" height="3.79604" stroke="white" stroke-width="1.26536"/>
<rect x="400.838" y="147.919" width="12.1475" height="3.79604" stroke="white" stroke-width="1.26536"/>
<rect x="414.504" y="212.197" width="12.1475" height="3.79604" stroke="white" stroke-width="1.26536"/>
<rect x="400.838" y="212.197" width="12.1475" height="3.79604" stroke="white" stroke-width="1.26536"/>
<rect x="352.249" y="212.197" width="12.1475" height="3.79604" stroke="white" stroke-width="1.26536"/>
<rect x="303.661" y="212.197" width="12.1475" height="3.79604" stroke="white" stroke-width="1.26536"/>
<rect x="352.249" y="147.919" width="12.1475" height="3.79604" stroke="white" stroke-width="1.26536"/>
<rect x="303.661" y="147.919" width="12.1475" height="3.79604" stroke="white" stroke-width="1.26536"/>
<rect x="178.639" y="147.919" width="12.1475" height="3.79604" stroke="white" stroke-width="1.26536"/>
<rect x="164.974" y="147.919" width="12.1475" height="3.79604" stroke="white" stroke-width="1.26536"/>
<path d="M5.53906 152.096L7.0575 159.435M17.6866 152.096L16.1681 159.435" stroke="white" stroke-width="1.26536"/>
<path d="M19.2041 152.096L20.7225 159.435M31.3516 152.096L29.8332 159.435" stroke="white" stroke-width="1.26536"/>
<path d="M67.7964 152.096L69.3148 159.435M79.9439 152.096L78.4254 159.435" stroke="white" stroke-width="1.26536"/>
<path d="M116.385 152.096L117.904 159.435M128.533 152.096L127.014 159.435" stroke="white" stroke-width="1.26536"/>
<path d="M164.974 152.096L166.493 159.435M177.122 152.096L175.603 159.435" stroke="white" stroke-width="1.26536"/>
<path d="M178.639 152.096L180.158 159.435M190.787 152.096L189.268 159.435" stroke="white" stroke-width="1.26536"/>
<path d="M241.403 152.096L242.922 159.435M253.551 152.096L252.032 159.435" stroke="white" stroke-width="1.26536"/>
<path d="M255.068 152.096L256.587 159.435M267.216 152.096L265.697 159.435" stroke="white" stroke-width="1.26536"/>
<path d="M303.657 152.096L305.176 159.435M315.805 152.096L314.286 159.435" stroke="white" stroke-width="1.26536"/>
<path d="M352.25 152.096L353.768 159.435M364.397 152.096L362.879 159.435" stroke="white" stroke-width="1.26536"/>
<path d="M400.839 152.096L402.357 159.435M412.986 152.096L411.468 159.435" stroke="white" stroke-width="1.26536"/>
<path d="M414.504 152.096L416.022 159.435M426.651 152.096L425.133 159.435" stroke="white" stroke-width="1.26536"/>
<path d="M34.3877 82.8628V121.475M27.3017 82.502V121.475" stroke="white" stroke-width="1.26536"/>
<rect x="26.4178" y="121.601" width="8.85756" height="2.78376" stroke="white" stroke-width="1.26536"/>
<rect x="26.4178" y="80.0975" width="8.85756" height="2.78376" stroke="white" stroke-width="1.26536"/>
<path d="M71.8428 82.8628V121.475M64.7567 82.502V121.475" stroke="white" stroke-width="1.26536"/>
<rect x="63.8729" y="121.601" width="8.85756" height="2.78376" stroke="white" stroke-width="1.26536"/>
<rect x="63.8729" y="80.0975" width="8.85756" height="2.78376" stroke="white" stroke-width="1.26536"/>
<path d="M82.9805 82.8628V121.475M75.8944 82.502V121.475" stroke="white" stroke-width="1.26536"/>
<rect x="75.0067" y="121.601" width="8.85756" height="2.78376" stroke="white" stroke-width="1.26536"/>
<rect x="75.0067" y="80.0975" width="8.85756" height="2.78376" stroke="white" stroke-width="1.26536"/>
<path d="M120.436 82.8628V121.475M113.35 82.502V121.475" stroke="white" stroke-width="1.26536"/>
<rect x="112.462" y="121.601" width="8.85756" height="2.78376" stroke="white" stroke-width="1.26536"/>
<rect x="112.462" y="80.0975" width="8.85756" height="2.78376" stroke="white" stroke-width="1.26536"/>
<path d="M131.569 82.8628V121.475M124.483 82.502V121.475" stroke="white" stroke-width="1.26536"/>
<rect x="123.596" y="121.601" width="8.85756" height="2.78376" stroke="white" stroke-width="1.26536"/>
<rect x="123.596" y="80.0975" width="8.85756" height="2.78376" stroke="white" stroke-width="1.26536"/>
<path d="M169.021 82.8628V121.475M161.934 82.502V121.475" stroke="white" stroke-width="1.26536"/>
<rect x="161.051" y="121.601" width="8.85756" height="2.78376" stroke="white" stroke-width="1.26536"/>
<rect x="161.051" y="80.0975" width="8.85756" height="2.78376" stroke="white" stroke-width="1.26536"/>
<path d="M200.914 82.8628V121.475M193.828 82.502V121.475" stroke="white" stroke-width="1.26536"/>
<rect x="192.941" y="121.601" width="8.85756" height="2.78376" stroke="white" stroke-width="1.26536"/>
<rect x="192.941" y="80.0975" width="8.85756" height="2.78376" stroke="white" stroke-width="1.26536"/>
<path d="M238.369 82.8628V121.475M231.283 82.502V121.475" stroke="white" stroke-width="1.26536"/>
<rect x="230.395" y="121.601" width="8.85756" height="2.78376" stroke="white" stroke-width="1.26536"/>
<rect x="230.395" y="80.0975" width="8.85756" height="2.78376" stroke="white" stroke-width="1.26536"/>
<path d="M270.252 82.8628V121.475M263.166 82.502V121.475" stroke="white" stroke-width="1.26536"/>
<rect x="262.282" y="121.601" width="8.85756" height="2.78376" stroke="white" stroke-width="1.26536"/>
<rect x="262.282" y="80.0975" width="8.85756" height="2.78376" stroke="white" stroke-width="1.26536"/>
<path d="M307.71 82.8628V121.475M300.624 82.502V121.475" stroke="white" stroke-width="1.26536"/>
<rect x="299.737" y="121.601" width="8.85756" height="2.78376" stroke="white" stroke-width="1.26536"/>
<rect x="299.737" y="80.0975" width="8.85756" height="2.78376" stroke="white" stroke-width="1.26536"/>
<path d="M318.844 82.8628V121.475M311.758 82.502V121.475" stroke="white" stroke-width="1.26536"/>
<rect x="310.871" y="121.601" width="8.85756" height="2.78376" stroke="white" stroke-width="1.26536"/>
<rect x="310.871" y="80.0975" width="8.85756" height="2.78376" stroke="white" stroke-width="1.26536"/>
<path d="M356.3 82.8628V121.475M349.214 82.502V121.475" stroke="white" stroke-width="1.26536"/>
<rect x="348.326" y="121.601" width="8.85756" height="2.78376" stroke="white" stroke-width="1.26536"/>
<rect x="348.326" y="80.0975" width="8.85756" height="2.78376" stroke="white" stroke-width="1.26536"/>
<path d="M367.43 82.8628V121.475M360.344 82.502V121.475" stroke="white" stroke-width="1.26536"/>
<rect x="359.46" y="121.601" width="8.85756" height="2.78376" stroke="white" stroke-width="1.26536"/>
<rect x="359.46" y="80.0975" width="8.85756" height="2.78376" stroke="white" stroke-width="1.26536"/>
<path d="M404.885 82.8628V121.475M397.799 82.502V121.475" stroke="white" stroke-width="1.26536"/>
<rect x="396.915" y="121.601" width="8.85756" height="2.78376" stroke="white" stroke-width="1.26536"/>
<rect x="396.915" y="80.0975" width="8.85756" height="2.78376" stroke="white" stroke-width="1.26536"/>
<rect x="175.225" y="84.1473" width="12.4006" height="36.189" stroke="white" stroke-width="1.26536"/>
<rect x="10.7279" y="84.1473" width="12.4006" height="36.189" stroke="white" stroke-width="1.26536"/>
<rect x="244.567" y="84.1473" width="12.4006" height="36.189" stroke="white" stroke-width="1.26536"/>
<rect x="408.559" y="84.1473" width="12.4006" height="36.189" stroke="white" stroke-width="1.26536"/>
<line x1="7.56396" y1="135.644" x2="424.122" y2="135.644" stroke="white" stroke-width="3.03686" stroke-dasharray="1.01 1.01"/>
<path d="M157.127 82.6426V121.84H136.375V82.6426H157.127Z" stroke="white" stroke-width="2.30576"/>
<rect x="145.828" y="81.4893" width="2.30577" height="41.5035" fill="white"/>
<rect x="158.28" y="92.0928" width="2.30575" height="23.0577" transform="rotate(90 158.28 92.0928)" fill="white"/>
<path d="M226.472 82.6426V121.84H205.72V82.6426H226.472Z" stroke="white" stroke-width="2.30576"/>
<rect x="215.173" y="81.4893" width="2.30577" height="41.5035" fill="white"/>
<rect x="227.625" y="92.0928" width="2.30575" height="23.0577" transform="rotate(90 227.625 92.0928)" fill="white"/>
<path d="M295.813 82.6426V121.84H275.062V82.6426H295.813Z" stroke="white" stroke-width="2.30576"/>
<rect x="284.515" y="81.4893" width="2.30577" height="41.5035" fill="white"/>
<rect x="296.964" y="92.0928" width="2.30575" height="23.0577" transform="rotate(90 296.964 92.0928)" fill="white"/>
<path d="M344.402 82.6426V121.84H323.65V82.6426H344.402Z" stroke="white" stroke-width="2.30576"/>
<rect x="333.104" y="81.4893" width="2.30577" height="41.5035" fill="white"/>
<rect x="345.556" y="92.0928" width="2.30575" height="23.0577" transform="rotate(90 345.556 92.0928)" fill="white"/>
<path d="M392.991 82.6426V121.84H372.24V82.6426H392.991Z" stroke="white" stroke-width="2.30576"/>
<rect x="381.693" y="81.4893" width="2.30577" height="41.5035" fill="white"/>
<rect x="394.145" y="92.0928" width="2.30575" height="23.0577" transform="rotate(90 394.145 92.0928)" fill="white"/>
<rect x="215.591" y="238.114" width="0.506149" height="51.0735" stroke="white" stroke-width="0.506143"/>
<rect x="222.403" y="278.429" width="6.80766" height="7.35963" stroke="white" stroke-width="0.784521"/>
<rect x="222.403" y="254.819" width="6.80766" height="18.7614" stroke="white" stroke-width="0.784521"/>
<rect x="222.403" y="242.591" width="6.80766" height="7.36077" stroke="white" stroke-width="0.784521"/>
<rect x="202.228" y="278.429" width="6.80766" height="7.35963" stroke="white" stroke-width="0.784521"/>
<rect x="202.228" y="254.819" width="6.80766" height="18.7614" stroke="white" stroke-width="0.784521"/>
<rect x="202.228" y="242.591" width="6.80766" height="7.36077" stroke="white" stroke-width="0.784521"/>
<path d="M203.697 288.091C203.992 288.091 204.23 288.33 204.23 288.624C204.23 288.919 203.992 289.157 203.697 289.157C203.403 289.157 203.164 288.918 203.164 288.624C203.164 288.33 203.403 288.091 203.697 288.091Z" stroke="white" stroke-width="0.506143"/>
<path d="M199.141 288.091C199.436 288.091 199.674 288.33 199.674 288.624C199.674 288.919 199.436 289.157 199.141 289.157C198.847 289.157 198.608 288.918 198.608 288.624C198.608 288.33 198.847 288.091 199.141 288.091Z" stroke="white" stroke-width="0.506143"/>
<path d="M194.585 288.091C194.879 288.091 195.118 288.33 195.118 288.624C195.118 288.919 194.879 289.157 194.585 289.157C194.291 289.157 194.052 288.918 194.052 288.624C194.052 288.33 194.291 288.091 194.585 288.091Z" stroke="white" stroke-width="0.506143"/>
<path d="M199.141 283.746C199.436 283.746 199.674 283.985 199.674 284.279C199.674 284.574 199.436 284.812 199.141 284.812C198.847 284.812 198.608 284.574 198.608 284.279C198.608 283.985 198.847 283.746 199.141 283.746Z" stroke="white" stroke-width="0.506143"/>
<path d="M194.585 283.746C194.879 283.746 195.118 283.985 195.118 284.279C195.118 284.574 194.879 284.812 194.585 284.812C194.291 284.812 194.052 284.574 194.052 284.279C194.052 283.985 194.291 283.746 194.585 283.746Z" stroke="white" stroke-width="0.506143"/>
<path d="M199.141 279.4C199.436 279.4 199.674 279.639 199.674 279.934C199.674 280.228 199.436 280.467 199.141 280.467C198.847 280.467 198.608 280.228 198.608 279.934C198.608 279.639 198.847 279.401 199.141 279.4Z" stroke="white" stroke-width="0.506143"/>
<path d="M194.585 279.4C194.879 279.4 195.118 279.639 195.118 279.934C195.118 280.228 194.879 280.467 194.585 280.467C194.291 280.467 194.052 280.228 194.052 279.934C194.052 279.639 194.291 279.401 194.585 279.4Z" stroke="white" stroke-width="0.506143"/>
<path d="M199.141 275.062C199.436 275.062 199.674 275.301 199.674 275.596C199.674 275.89 199.436 276.129 199.141 276.129C198.847 276.129 198.608 275.89 198.608 275.596C198.608 275.301 198.847 275.063 199.141 275.062Z" stroke="white" stroke-width="0.506143"/>
<path d="M194.585 275.062C194.879 275.062 195.118 275.301 195.118 275.596C195.118 275.89 194.879 276.129 194.585 276.129C194.291 276.129 194.052 275.89 194.052 275.596C194.052 275.301 194.291 275.063 194.585 275.062Z" stroke="white" stroke-width="0.506143"/>
<path d="M199.141 270.717C199.436 270.717 199.674 270.956 199.674 271.25C199.674 271.545 199.436 271.783 199.141 271.783C198.847 271.783 198.608 271.544 198.608 271.25C198.608 270.956 198.847 270.717 199.141 270.717Z" stroke="white" stroke-width="0.506143"/>
<path d="M194.585 270.717C194.879 270.717 195.118 270.956 195.118 271.25C195.118 271.545 194.879 271.783 194.585 271.783C194.291 271.783 194.052 271.544 194.052 271.25C194.052 270.956 194.291 270.717 194.585 270.717Z" stroke="white" stroke-width="0.506143"/>
<path d="M199.141 266.372C199.436 266.372 199.674 266.611 199.674 266.905C199.674 267.2 199.436 267.438 199.141 267.438C198.847 267.438 198.608 267.2 198.608 266.905C198.608 266.611 198.847 266.372 199.141 266.372Z" stroke="white" stroke-width="0.506143"/>
<path d="M194.585 266.372C194.879 266.372 195.118 266.611 195.118 266.905C195.118 267.2 194.879 267.438 194.585 267.438C194.291 267.438 194.052 267.2 194.052 266.905C194.052 266.611 194.291 266.372 194.585 266.372Z" stroke="white" stroke-width="0.506143"/>
<path d="M199.141 262.026C199.436 262.026 199.674 262.265 199.674 262.56C199.674 262.854 199.436 263.093 199.141 263.093C198.847 263.093 198.608 262.854 198.608 262.56C198.608 262.265 198.847 262.026 199.141 262.026Z" stroke="white" stroke-width="0.506143"/>
<path d="M194.585 262.026C194.879 262.026 195.118 262.265 195.118 262.56C195.118 262.854 194.879 263.093 194.585 263.093C194.291 263.093 194.052 262.854 194.052 262.56C194.052 262.265 194.291 262.026 194.585 262.026Z" stroke="white" stroke-width="0.506143"/>
<path d="M199.141 257.688C199.436 257.688 199.674 257.927 199.674 258.222C199.674 258.516 199.436 258.755 199.141 258.755C198.847 258.755 198.608 258.516 198.608 258.222C198.608 257.927 198.847 257.689 199.141 257.688Z" stroke="white" stroke-width="0.506143"/>
<path d="M194.585 257.688C194.879 257.688 195.118 257.927 195.118 258.222C195.118 258.516 194.879 258.755 194.585 258.755C194.291 258.755 194.052 258.516 194.052 258.222C194.052 257.927 194.291 257.689 194.585 257.688Z" stroke="white" stroke-width="0.506143"/>
<path d="M199.141 253.344C199.436 253.344 199.674 253.583 199.674 253.877C199.674 254.171 199.436 254.41 199.141 254.41C198.847 254.41 198.608 254.171 198.608 253.877C198.608 253.583 198.847 253.344 199.141 253.344Z" stroke="white" stroke-width="0.506143"/>
<path d="M194.585 253.344C194.879 253.344 195.118 253.583 195.118 253.877C195.118 254.171 194.879 254.41 194.585 254.41C194.291 254.41 194.052 254.171 194.052 253.877C194.052 253.583 194.291 253.344 194.585 253.344Z" stroke="white" stroke-width="0.506143"/>
<path d="M199.141 248.998C199.436 248.998 199.674 249.237 199.674 249.531C199.674 249.826 199.436 250.064 199.141 250.064C198.847 250.064 198.608 249.826 198.608 249.531C198.608 249.237 198.847 248.998 199.141 248.998Z" stroke="white" stroke-width="0.506143"/>
<path d="M194.585 248.998C194.879 248.998 195.118 249.237 195.118 249.531C195.118 249.826 194.879 250.064 194.585 250.064C194.291 250.064 194.052 249.826 194.052 249.531C194.052 249.237 194.291 248.998 194.585 248.998Z" stroke="white" stroke-width="0.506143"/>
<path d="M199.141 244.653C199.436 244.653 199.674 244.892 199.674 245.187C199.674 245.481 199.436 245.72 199.141 245.72C198.847 245.72 198.608 245.481 198.608 245.187C198.608 244.892 198.847 244.653 199.141 244.653Z" stroke="white" stroke-width="0.506143"/>
<path d="M194.585 244.653C194.879 244.653 195.118 244.892 195.118 245.187C195.118 245.481 194.879 245.72 194.585 245.72C194.291 245.72 194.052 245.481 194.052 245.187C194.052 244.892 194.291 244.653 194.585 244.653Z" stroke="white" stroke-width="0.506143"/>
<path d="M237.102 283.746C237.397 283.746 237.635 283.985 237.635 284.279C237.635 284.574 237.397 284.812 237.102 284.812C236.808 284.812 236.569 284.574 236.569 284.279C236.569 283.985 236.808 283.746 237.102 283.746Z" stroke="white" stroke-width="0.506143"/>
<path d="M232.546 283.746C232.84 283.746 233.079 283.985 233.079 284.279C233.079 284.574 232.84 284.812 232.546 284.812C232.251 284.812 232.013 284.574 232.013 284.279C232.013 283.985 232.252 283.746 232.546 283.746Z" stroke="white" stroke-width="0.506143"/>
<path d="M237.102 279.4C237.397 279.4 237.635 279.639 237.635 279.934C237.635 280.228 237.397 280.467 237.102 280.467C236.808 280.467 236.569 280.228 236.569 279.934C236.569 279.639 236.808 279.401 237.102 279.4Z" stroke="white" stroke-width="0.506143"/>
<path d="M232.546 279.4C232.84 279.4 233.079 279.639 233.079 279.934C233.079 280.228 232.84 280.467 232.546 280.467C232.251 280.467 232.013 280.228 232.013 279.934C232.013 279.639 232.252 279.401 232.546 279.4Z" stroke="white" stroke-width="0.506143"/>
<path d="M237.102 275.062C237.397 275.062 237.635 275.301 237.635 275.596C237.635 275.89 237.397 276.129 237.102 276.129C236.808 276.129 236.569 275.89 236.569 275.596C236.569 275.301 236.808 275.063 237.102 275.062Z" stroke="white" stroke-width="0.506143"/>
<path d="M232.546 275.062C232.84 275.062 233.079 275.301 233.079 275.596C233.079 275.89 232.84 276.129 232.546 276.129C232.251 276.129 232.013 275.89 232.013 275.596C232.013 275.301 232.252 275.063 232.546 275.062Z" stroke="white" stroke-width="0.506143"/>
<path d="M237.102 270.717C237.397 270.717 237.635 270.956 237.635 271.25C237.635 271.545 237.397 271.783 237.102 271.783C236.808 271.783 236.569 271.544 236.569 271.25C236.569 270.956 236.808 270.717 237.102 270.717Z" stroke="white" stroke-width="0.506143"/>
<path d="M232.546 270.717C232.84 270.717 233.079 270.956 233.079 271.25C233.079 271.545 232.84 271.783 232.546 271.783C232.251 271.783 232.013 271.544 232.013 271.25C232.013 270.956 232.252 270.717 232.546 270.717Z" stroke="white" stroke-width="0.506143"/>
<path d="M237.102 266.372C237.397 266.372 237.635 266.611 237.635 266.905C237.635 267.2 237.397 267.438 237.102 267.438C236.808 267.438 236.569 267.2 236.569 266.905C236.569 266.611 236.808 266.372 237.102 266.372Z" stroke="white" stroke-width="0.506143"/>
<path d="M232.546 266.372C232.84 266.372 233.079 266.611 233.079 266.905C233.079 267.2 232.84 267.438 232.546 267.438C232.251 267.438 232.013 267.2 232.013 266.905C232.013 266.611 232.252 266.372 232.546 266.372Z" stroke="white" stroke-width="0.506143"/>
<path d="M237.102 262.026C237.397 262.026 237.635 262.265 237.635 262.56C237.635 262.854 237.397 263.093 237.102 263.093C236.808 263.093 236.569 262.854 236.569 262.56C236.569 262.265 236.808 262.026 237.102 262.026Z" stroke="white" stroke-width="0.506143"/>
<path d="M232.546 262.026C232.84 262.026 233.079 262.265 233.079 262.56C233.079 262.854 232.84 263.093 232.546 263.093C232.251 263.093 232.013 262.854 232.013 262.56C232.013 262.265 232.252 262.026 232.546 262.026Z" stroke="white" stroke-width="0.506143"/>
<path d="M237.102 257.688C237.397 257.688 237.635 257.927 237.635 258.222C237.635 258.516 237.397 258.755 237.102 258.755C236.808 258.755 236.569 258.516 236.569 258.222C236.569 257.927 236.808 257.689 237.102 257.688Z" stroke="white" stroke-width="0.506143"/>
<path d="M232.546 257.688C232.84 257.688 233.079 257.927 233.079 258.222C233.079 258.516 232.84 258.755 232.546 258.755C232.251 258.755 232.013 258.516 232.013 258.222C232.013 257.927 232.252 257.689 232.546 257.688Z" stroke="white" stroke-width="0.506143"/>
<path d="M237.102 253.344C237.397 253.344 237.635 253.583 237.635 253.877C237.635 254.171 237.397 254.41 237.102 254.41C236.808 254.41 236.569 254.171 236.569 253.877C236.569 253.583 236.808 253.344 237.102 253.344Z" stroke="white" stroke-width="0.506143"/>
<path d="M232.546 253.344C232.84 253.344 233.079 253.583 233.079 253.877C233.079 254.171 232.84 254.41 232.546 254.41C232.251 254.41 232.013 254.171 232.013 253.877C232.013 253.583 232.252 253.344 232.546 253.344Z" stroke="white" stroke-width="0.506143"/>
<path d="M237.102 248.998C237.397 248.998 237.635 249.237 237.635 249.531C237.635 249.826 237.397 250.064 237.102 250.064C236.808 250.064 236.569 249.826 236.569 249.531C236.569 249.237 236.808 248.998 237.102 248.998Z" stroke="white" stroke-width="0.506143"/>
<path d="M232.546 248.998C232.84 248.998 233.079 249.237 233.079 249.531C233.079 249.826 232.84 250.064 232.546 250.064C232.251 250.064 232.013 249.826 232.013 249.531C232.013 249.237 232.252 248.998 232.546 248.998Z" stroke="white" stroke-width="0.506143"/>
<path d="M237.102 244.653C237.397 244.653 237.635 244.892 237.635 245.187C237.635 245.481 237.397 245.72 237.102 245.72C236.808 245.72 236.569 245.481 236.569 245.187C236.569 244.892 236.808 244.653 237.102 244.653Z" stroke="white" stroke-width="0.506143"/>
<path d="M232.546 244.653C232.84 244.653 233.079 244.892 233.079 245.187C233.079 245.481 232.84 245.72 232.546 245.72C232.251 245.72 232.013 245.481 232.013 245.187C232.013 244.892 232.252 244.653 232.546 244.653Z" stroke="white" stroke-width="0.506143"/>
<path d="M199.141 239.767C199.436 239.767 199.674 240.005 199.674 240.3C199.674 240.594 199.436 240.833 199.141 240.833C198.847 240.833 198.608 240.594 198.608 240.3C198.608 240.005 198.847 239.767 199.141 239.767Z" stroke="white" stroke-width="0.506143"/>
<path d="M212.806 283.746C213.101 283.746 213.339 283.985 213.339 284.279C213.339 284.574 213.101 284.812 212.806 284.812C212.512 284.812 212.273 284.574 212.273 284.279C212.273 283.985 212.512 283.746 212.806 283.746Z" stroke="white" stroke-width="0.506143"/>
<path d="M212.806 279.4C213.101 279.4 213.339 279.639 213.339 279.934C213.339 280.228 213.101 280.467 212.806 280.467C212.512 280.467 212.273 280.228 212.273 279.934C212.273 279.639 212.512 279.401 212.806 279.4Z" stroke="white" stroke-width="0.506143"/>
<path d="M212.806 275.062C213.101 275.062 213.339 275.301 213.339 275.596C213.339 275.89 213.101 276.129 212.806 276.129C212.512 276.129 212.273 275.89 212.273 275.596C212.273 275.301 212.512 275.063 212.806 275.062Z" stroke="white" stroke-width="0.506143"/>
<path d="M212.806 270.717C213.101 270.717 213.339 270.956 213.339 271.25C213.339 271.545 213.101 271.783 212.806 271.783C212.512 271.783 212.273 271.544 212.273 271.25C212.273 270.956 212.512 270.717 212.806 270.717Z" stroke="white" stroke-width="0.506143"/>
<path d="M212.806 266.372C213.101 266.372 213.339 266.611 213.339 266.905C213.339 267.2 213.101 267.438 212.806 267.438C212.512 267.438 212.273 267.2 212.273 266.905C212.273 266.611 212.512 266.372 212.806 266.372Z" stroke="white" stroke-width="0.506143"/>
<path d="M212.806 262.026C213.101 262.026 213.339 262.265 213.339 262.56C213.339 262.854 213.101 263.093 212.806 263.093C212.512 263.093 212.273 262.854 212.273 262.56C212.273 262.265 212.512 262.026 212.806 262.026Z" stroke="white" stroke-width="0.506143"/>
<path d="M212.806 257.688C213.101 257.688 213.339 257.927 213.339 258.222C213.339 258.516 213.101 258.755 212.806 258.755C212.512 258.755 212.273 258.516 212.273 258.222C212.273 257.927 212.512 257.689 212.806 257.688Z" stroke="white" stroke-width="0.506143"/>
<path d="M212.806 253.344C213.101 253.344 213.339 253.583 213.339 253.877C213.339 254.171 213.101 254.41 212.806 254.41C212.512 254.41 212.273 254.171 212.273 253.877C212.273 253.583 212.512 253.344 212.806 253.344Z" stroke="white" stroke-width="0.506143"/>
<path d="M212.806 248.998C213.101 248.998 213.339 249.237 213.339 249.531C213.339 249.826 213.101 250.064 212.806 250.064C212.512 250.064 212.273 249.826 212.273 249.531C212.273 249.237 212.512 248.998 212.806 248.998Z" stroke="white" stroke-width="0.506143"/>
<path d="M212.806 244.653C213.101 244.653 213.339 244.892 213.339 245.187C213.339 245.481 213.101 245.72 212.806 245.72C212.512 245.72 212.273 245.481 212.273 245.187C212.273 244.892 212.512 244.653 212.806 244.653Z" stroke="white" stroke-width="0.506143"/>
<path d="M212.806 239.767C213.101 239.767 213.339 240.005 213.339 240.3C213.339 240.594 213.101 240.833 212.806 240.833C212.512 240.833 212.273 240.594 212.273 240.3C212.273 240.005 212.512 239.767 212.806 239.767Z" stroke="white" stroke-width="0.506143"/>
<path d="M218.881 283.746C219.175 283.746 219.414 283.985 219.414 284.279C219.414 284.574 219.175 284.812 218.881 284.812C218.586 284.812 218.348 284.574 218.348 284.279C218.348 283.985 218.587 283.746 218.881 283.746Z" stroke="white" stroke-width="0.506143"/>
<path d="M218.881 279.4C219.175 279.4 219.414 279.639 219.414 279.934C219.414 280.228 219.175 280.467 218.881 280.467C218.586 280.467 218.348 280.228 218.348 279.934C218.348 279.639 218.587 279.401 218.881 279.4Z" stroke="white" stroke-width="0.506143"/>
<path d="M218.881 275.062C219.175 275.062 219.414 275.301 219.414 275.596C219.414 275.89 219.175 276.129 218.881 276.129C218.586 276.129 218.348 275.89 218.348 275.596C218.348 275.301 218.587 275.063 218.881 275.062Z" stroke="white" stroke-width="0.506143"/>
<path d="M218.881 270.717C219.175 270.717 219.414 270.956 219.414 271.25C219.414 271.545 219.175 271.783 218.881 271.783C218.586 271.783 218.348 271.544 218.348 271.25C218.348 270.956 218.587 270.717 218.881 270.717Z" stroke="white" stroke-width="0.506143"/>
<path d="M218.881 266.372C219.175 266.372 219.414 266.611 219.414 266.905C219.414 267.2 219.175 267.438 218.881 267.438C218.586 267.438 218.348 267.2 218.348 266.905C218.348 266.611 218.587 266.372 218.881 266.372Z" stroke="white" stroke-width="0.506143"/>
<path d="M218.881 262.026C219.175 262.026 219.414 262.265 219.414 262.56C219.414 262.854 219.175 263.093 218.881 263.093C218.586 263.093 218.348 262.854 218.348 262.56C218.348 262.265 218.587 262.026 218.881 262.026Z" stroke="white" stroke-width="0.506143"/>
<path d="M218.881 257.688C219.175 257.688 219.414 257.927 219.414 258.222C219.414 258.516 219.175 258.755 218.881 258.755C218.586 258.755 218.348 258.516 218.348 258.222C218.348 257.927 218.587 257.689 218.881 257.688Z" stroke="white" stroke-width="0.506143"/>
<path d="M218.881 253.344C219.175 253.344 219.414 253.583 219.414 253.877C219.414 254.171 219.175 254.41 218.881 254.41C218.586 254.41 218.348 254.171 218.348 253.877C218.348 253.583 218.587 253.344 218.881 253.344Z" stroke="white" stroke-width="0.506143"/>
<path d="M218.881 248.998C219.175 248.998 219.414 249.237 219.414 249.531C219.414 249.826 219.175 250.064 218.881 250.064C218.586 250.064 218.348 249.826 218.348 249.531C218.348 249.237 218.587 248.998 218.881 248.998Z" stroke="white" stroke-width="0.506143"/>
<path d="M218.881 244.653C219.175 244.653 219.414 244.892 219.414 245.187C219.414 245.481 219.175 245.72 218.881 245.72C218.586 245.72 218.348 245.481 218.348 245.187C218.348 244.892 218.587 244.653 218.881 244.653Z" stroke="white" stroke-width="0.506143"/>
<path d="M218.881 239.767C219.175 239.767 219.414 240.005 219.414 240.3C219.414 240.594 219.175 240.833 218.881 240.833C218.586 240.833 218.348 240.594 218.348 240.3C218.348 240.005 218.587 239.767 218.881 239.767Z" stroke="white" stroke-width="0.506143"/>
<path d="M194.585 239.767C194.879 239.767 195.118 240.005 195.118 240.3C195.118 240.594 194.879 240.833 194.585 240.833C194.291 240.833 194.052 240.594 194.052 240.3C194.052 240.005 194.291 239.767 194.585 239.767Z" stroke="white" stroke-width="0.506143"/>
<path d="M208.253 288.091C208.548 288.091 208.787 288.33 208.787 288.624C208.787 288.919 208.548 289.157 208.253 289.157C207.959 289.157 207.72 288.918 207.72 288.624C207.72 288.33 207.959 288.091 208.253 288.091Z" stroke="white" stroke-width="0.506143"/>
<path d="M203.697 239.767C203.992 239.767 204.23 240.005 204.23 240.3C204.23 240.594 203.992 240.833 203.697 240.833C203.403 240.833 203.164 240.594 203.164 240.3C203.164 240.005 203.403 239.767 203.697 239.767Z" stroke="white" stroke-width="0.506143"/>
<path d="M208.253 239.767C208.548 239.767 208.787 240.005 208.787 240.3C208.787 240.594 208.548 240.833 208.253 240.833C207.959 240.833 207.72 240.594 207.72 240.3C207.72 240.005 207.959 239.767 208.253 239.767Z" stroke="white" stroke-width="0.506143"/>
<path d="M227.99 239.767C228.284 239.767 228.523 240.005 228.523 240.3C228.523 240.594 228.284 240.833 227.99 240.833C227.695 240.833 227.457 240.594 227.457 240.3C227.457 240.005 227.695 239.767 227.99 239.767Z" stroke="white" stroke-width="0.506143"/>
<path d="M223.437 239.767C223.731 239.767 223.97 240.005 223.97 240.3C223.97 240.594 223.732 240.833 223.437 240.833C223.143 240.833 222.904 240.594 222.904 240.3C222.904 240.005 223.143 239.767 223.437 239.767Z" stroke="white" stroke-width="0.506143"/>
<path d="M232.546 239.767C232.84 239.767 233.079 240.005 233.079 240.3C233.079 240.594 232.84 240.833 232.546 240.833C232.251 240.833 232.013 240.594 232.013 240.3C232.013 240.005 232.252 239.767 232.546 239.767Z" stroke="white" stroke-width="0.506143"/>
<path d="M237.102 239.767C237.397 239.767 237.635 240.005 237.635 240.3C237.635 240.594 237.397 240.833 237.102 240.833C236.808 240.833 236.569 240.594 236.569 240.3C236.569 240.005 236.808 239.767 237.102 239.767Z" stroke="white" stroke-width="0.506143"/>
<path d="M212.806 288.091C213.101 288.091 213.339 288.33 213.339 288.624C213.339 288.919 213.101 289.157 212.806 289.157C212.512 289.157 212.273 288.918 212.273 288.624C212.273 288.33 212.512 288.091 212.806 288.091Z" stroke="white" stroke-width="0.506143"/>
<path d="M227.99 288.091C228.284 288.091 228.523 288.33 228.523 288.624C228.523 288.919 228.284 289.157 227.99 289.157C227.695 289.157 227.457 288.918 227.457 288.624C227.457 288.33 227.695 288.091 227.99 288.091Z" stroke="white" stroke-width="0.506143"/>
<path d="M223.437 288.091C223.731 288.091 223.97 288.33 223.97 288.624C223.97 288.919 223.732 289.157 223.437 289.157C223.143 289.157 222.904 288.918 222.904 288.624C222.904 288.33 223.143 288.091 223.437 288.091Z" stroke="white" stroke-width="0.506143"/>
<path d="M218.881 288.091C219.175 288.091 219.414 288.33 219.414 288.624C219.414 288.919 219.175 289.157 218.881 289.157C218.586 289.157 218.348 288.918 218.348 288.624C218.348 288.33 218.587 288.091 218.881 288.091Z" stroke="white" stroke-width="0.506143"/>
<path d="M232.546 288.091C232.84 288.091 233.079 288.33 233.079 288.624C233.079 288.919 232.84 289.157 232.546 289.157C232.251 289.157 232.013 288.918 232.013 288.624C232.013 288.33 232.252 288.091 232.546 288.091Z" stroke="white" stroke-width="0.506143"/>
<path d="M237.102 288.091C237.397 288.091 237.635 288.33 237.635 288.624C237.635 288.919 237.397 289.157 237.102 289.157C236.808 289.157 236.569 288.918 236.569 288.624C236.569 288.33 236.808 288.091 237.102 288.091Z" stroke="white" stroke-width="0.506143"/>
<rect x="191.802" y="289.982" width="49.6023" height="0.542943" fill="white"/>
</svg>
